<svg xmlns="http://www.w3.org/2000/svg" width="992" height="1072" viewBox="0 0 992 1072" version="1.1">
  <path d="M 482 151.638 C 477.372 152.531, 470.565 154.995, 464.224 158.073 C 455.523 162.296, 452.689 164.320, 445.724 171.280 C 431.283 185.713, 425.088 199.786, 424.246 220.070 C 423.675 233.839, 425.753 243.831, 431.625 255.553 L 435.282 262.854 427.464 276.177 C 418.126 292.091, 385.318 347.822, 353.982 401 C 341.505 422.175, 323.740 452.325, 314.506 468 C 305.272 483.675, 292.674 505.050, 286.511 515.500 C 280.347 525.950, 264.729 552.500, 251.803 574.500 C 238.878 596.500, 216.238 634.975, 201.492 660 C 186.747 685.025, 171.784 710.450, 168.241 716.500 C 164.698 722.550, 161.394 727.996, 160.899 728.603 C 160.404 729.210, 155.837 729.969, 150.749 730.290 C 127.541 731.755, 105.598 745.181, 93.182 765.512 C 91.499 768.269, 88.665 774.794, 86.884 780.012 C 83.971 788.550, 83.640 790.701, 83.574 801.500 C 83.495 814.285, 84.605 820.520, 88.724 830.448 C 97.561 851.745, 116.901 868.121, 139.770 873.672 C 149.237 875.969, 165.351 875.731, 175.154 873.148 C 197.100 867.365, 216.531 850.367, 224.973 829.566 L 227.232 824 496.641 824 L 766.050 824 767.061 826.750 C 769.522 833.440, 774.911 842.702, 779.778 848.609 C 802.037 875.623, 839.748 883.216, 870.943 866.963 C 875.100 864.798, 880.912 861.045, 883.859 858.623 C 911.653 835.786, 918.114 794.095, 898.591 763.575 C 885.633 743.317, 862.221 730, 839.567 730 C 833.104 730, 833.001 729.957, 830.632 726.250 C 828.316 722.626, 793.833 664.016, 748.997 587.500 C 726.424 548.976, 697.485 499.804, 664.249 443.500 C 629.798 385.137, 625.838 378.420, 591.603 320.285 L 557.909 263.069 561.870 254.785 C 567.791 242.399, 569.338 234.567, 568.779 219.802 C 568.042 200.340, 562.501 186.826, 549.697 173.263 C 532.047 154.568, 507.482 146.721, 482 151.638 M 453.956 295.652 C 451.076 300.518, 403.058 382.125, 347.248 477 C 291.439 571.875, 239.151 660.750, 231.051 674.500 C 198.873 729.129, 194.749 736.244, 194.321 737.882 C 194.010 739.069, 195.578 740.754, 199.518 743.468 C 207.894 749.236, 216.464 759.252, 221.367 769 C 223.718 773.675, 225.905 778.513, 226.228 779.752 L 226.814 782.004 496.434 781.752 L 766.053 781.500 769.397 773.809 C 775.039 760.830, 784.252 749.494, 794.866 742.470 C 797.140 740.965, 799 739.176, 799 738.494 C 799 737.312, 780.726 705.715, 753.025 659 C 742.004 640.414, 730.554 620.930, 702.487 573 C 699.105 567.225, 688.908 549.900, 679.827 534.500 C 670.746 519.100, 644.950 475.225, 622.504 437 C 600.058 398.775, 576.890 359.400, 571.020 349.500 C 565.150 339.600, 554.550 321.663, 547.466 309.639 C 540.381 297.615, 533.987 287.549, 533.257 287.268 C 532.527 286.988, 529.357 287.899, 526.214 289.293 C 507.810 297.457, 487.478 297.900, 469.930 290.521 C 459.027 285.936, 459.866 285.667, 453.956 295.652" stroke="none" fill="#3c4e43" fill-rule="evenodd"/>
  <path d="M 482 151.638 C 477.372 152.531, 470.565 154.995, 464.224 158.073 C 455.523 162.296, 452.689 164.320, 445.724 171.280 C 431.283 185.713, 425.088 199.786, 424.246 220.070 C 423.675 233.839, 425.753 243.831, 431.625 255.553 L 435.282 262.854 427.464 276.177 C 418.126 292.091, 385.318 347.822, 353.982 401 C 341.505 422.175, 323.740 452.325, 314.506 468 C 305.272 483.675, 292.674 505.050, 286.511 515.500 C 280.347 525.950, 264.729 552.500, 251.803 574.500 C 238.878 596.500, 216.238 634.975, 201.492 660 C 186.747 685.025, 171.784 710.450, 168.241 716.500 C 164.698 722.550, 161.394 727.996, 160.899 728.603 C 160.404 729.210, 155.837 729.969, 150.749 730.290 C 127.541 731.755, 105.598 745.181, 93.182 765.512 C 91.499 768.269, 88.665 774.794, 86.884 780.012 C 83.971 788.550, 83.640 790.701, 83.574 801.500 C 83.495 814.285, 84.605 820.520, 88.724 830.448 C 97.561 851.745, 116.901 868.121, 139.770 873.672 C 149.237 875.969, 165.351 875.731, 175.154 873.148 C 197.100 867.365, 216.531 850.367, 224.973 829.566 L 227.232 824 496.641 824 L 766.050 824 767.061 826.750 C 769.522 833.440, 774.911 842.702, 779.778 848.609 C 802.037 875.623, 839.748 883.216, 870.943 866.963 C 875.100 864.798, 880.912 861.045, 883.859 858.623 C 911.653 835.786, 918.114 794.095, 898.591 763.575 C 885.633 743.317, 862.221 730, 839.567 730 C 833.104 730, 833.001 729.957, 830.632 726.250 C 828.316 722.626, 793.833 664.016, 748.997 587.500 C 726.424 548.976, 697.485 499.804, 664.249 443.500 C 629.798 385.137, 625.838 378.420, 591.603 320.285 L 557.909 263.069 561.870 254.785 C 567.791 242.399, 569.338 234.567, 568.779 219.802 C 568.042 200.340, 562.501 186.826, 549.697 173.263 C 532.047 154.568, 507.482 146.721, 482 151.638 M 458.178 288.813 C 457.150 290.291, 454.737 294.200, 452.815 297.500 C 449.231 303.655, 257.536 629.537, 231.051 674.500 C 198.873 729.129, 194.749 736.244, 194.321 737.882 C 194.010 739.069, 195.578 740.754, 199.518 743.468 C 207.894 749.236, 216.464 759.252, 221.367 769 C 223.718 773.675, 225.905 778.513, 226.227 779.750 L 226.813 782 496.438 782 C 752.332 782, 766.093 781.911, 766.654 780.250 C 766.979 779.288, 768.958 774.900, 771.052 770.500 C 776.765 758.499, 783.170 751.176, 797.292 740.500 L 799.938 738.500 791.625 724.500 C 780.579 705.897, 749.506 653.138, 729.489 619 C 720.621 603.875, 709.525 584.975, 702.487 573 C 699.105 567.225, 688.908 549.900, 679.827 534.500 C 670.746 519.100, 644.950 475.225, 622.504 437 C 600.058 398.775, 576.890 359.400, 571.020 349.500 C 565.150 339.600, 554.550 321.663, 547.466 309.639 C 540.381 297.615, 533.987 287.549, 533.257 287.268 C 532.527 286.988, 529.357 287.899, 526.214 289.293 C 507.810 297.457, 487.478 297.900, 469.930 290.521 C 459.027 285.936, 459.866 285.667, 453.956 295.652" stroke="none" fill="#a1c4b0" fill-rule="evenodd"/>
</svg>
