<?xml version="1.0" encoding="UTF-8" standalone="no"?>
<!-- Created with Inkscape (http://www.inkscape.org/) -->

<svg
   width="210mm"
   height="297mm"
   viewBox="0 0 210 297"
   version="1.1"
   id="svg1"
   inkscape:version="1.4.3 (0d15f75, 2025-12-25)"
   sodipodi:docname="virtue_empty_placeholder"
   xmlns:inkscape="http://www.inkscape.org/namespaces/inkscape"
   xmlns:sodipodi="http://sodipodi.sourceforge.net/DTD/sodipodi-0.dtd"
   xmlns="http://www.w3.org/2000/svg"
   xmlns:svg="http://www.w3.org/2000/svg">
  <sodipodi:namedview
     id="namedview1"
     pagecolor="#ffffff"
     bordercolor="#000000"
     borderopacity="0.25"
     inkscape:showpageshadow="2"
     inkscape:pageopacity="0.0"
     inkscape:pagecheckerboard="0"
     inkscape:deskcolor="#d1d1d1"
     inkscape:document-units="mm"
     inkscape:zoom="0.023162177"
     inkscape:cx="410.15142"
     inkscape:cy="561.25984"
     inkscape:window-width="1272"
     inkscape:window-height="599"
     inkscape:window-x="948"
     inkscape:window-y="1473"
     inkscape:window-maximized="0"
     inkscape:current-layer="layer1" />
  <defs
     id="defs1">
    <clipPath
       clipPathUnits="userSpaceOnUse"
       id="clipPath9129-19">
      <path
         d="M 0,807.56667 H 1213.2293 V 0 H 0 Z"
         id="path9129-5" />
    </clipPath>
    <clipPath
       clipPathUnits="userSpaceOnUse"
       id="clipPath9127-7">
      <path
         d="M 932.19467,201.348 H 1187.712 V 309.59467 H 932.19467 Z"
         id="path9127-6" />
    </clipPath>
    <clipPath
       clipPathUnits="userSpaceOnUse"
       id="clipPath9126-8">
      <path
         d="M -27.010698,0.0045975 H 164.62731 V 81.1766 H -27.010698 Z"
         id="path9126-5" />
    </clipPath>
  </defs>
  <g
     inkscape:label="Layer 1"
     inkscape:groupmode="layer"
     id="layer1">
    <g
       opacity="0.550003"
       id="g9129-9"
       clip-path="url(#clipPath9129-19)"
       inkscape:label="empty_virtue_1_place_holder"
       style="display:inline"
       transform="matrix(0.26458333,0,0,0.26458333,-172.03079,80.867606)">
      <g
         clip-path="url(#clipPath9127-7)"
         id="g9128-6">
        <path
           d="M 0,0 C -2.894,0 -5.242,2.344 -5.242,5.237 L -5.25,6.654 c 0,1.768 -1.442,3.198 -3.211,3.198 h -3.718 c -2.893,0 -5.237,2.348 -5.237,5.241 v 2.585 c 0,1.936 -1.12,3.64 -2.842,4.352 -2.55,1.039 -4.336,3.606 -4.336,6.225 v 5.353 c 0,1.713 -0.708,3.533 -2.107,5.4 -0.421,0.571 -0.412,1.344 0.025,1.932 1.276,1.696 1.945,3.507 1.945,5.242 l 0.137,6.679 c 0,2.735 1.726,5.242 4.284,6.267 1.731,0.696 2.894,2.447 2.894,4.371 v 2.584 c 0,2.893 2.353,5.241 5.237,5.241 h 3.516 c 1.837,0 3.361,1.494 3.395,3.331 l 0.026,1.258 c 0,2.92 2.357,5.268 5.242,5.268 h 137.613 c 2.885,0 5.241,-2.348 5.241,-5.242 l 0.026,-1.284 c 0.034,-1.837 1.555,-3.331 3.391,-3.331 h 3.516 c 2.885,0 5.241,-2.348 5.241,-5.241 v -2.584 c 0,-1.924 1.159,-3.675 2.894,-4.371 2.558,-1.025 4.28,-3.532 4.28,-6.232 l 0.142,-6.749 c 0,-1.7 0.67,-3.511 1.944,-5.207 0.439,-0.588 0.446,-1.361 0.026,-1.932 -1.4,-1.867 -2.112,-3.687 -2.112,-5.4 v -5.353 c 0,-2.619 -1.782,-5.186 -4.332,-6.225 -1.725,-0.712 -2.842,-2.416 -2.842,-4.352 v -2.585 c 0,-2.893 -2.356,-5.241 -5.241,-5.241 h -3.718 c -1.763,0 -3.206,-1.43 -3.215,-3.198 V 5.246 C 142.854,2.344 140.498,0 137.613,0 Z"
           style="fill:#2a443e;fill-opacity:1;fill-rule:nonzero;stroke:none"
           transform="matrix(1.3333333,0,0,-1.3333333,968.20893,309.59413)"
           clip-path="url(#clipPath9126-8)"
           id="path9128-6" />
      </g>
    </g>
  </g>
</svg>
